<svg height="411pt" viewBox="-13 0 411 411.76" width="411pt" xmlns="http://www.w3.org/2000/svg"><path d="m32.378906 0h320v32h-320zm0 0"/><path d="m336.378906 64h-122.839844l-21.160156 52.910156-21.167968-52.910156h-122.832032c-26.472656 0-48 21.527344-48 48v80h32v-16c0-8.824219 7.175782-16 16-16h45.097656l98.902344 251.761719 98.90625-251.761719h45.09375c8.824219 0 16 7.175781 16 16v16h32v-80c0-26.472656-21.527344-48-48-48zm0 64h-66.902344l-77.097656 196.238281-77.09375-196.238281h-66.90625c-5.605468 0-10.992187.96875-16 2.742188v-18.742188c0-8.824219 7.175782-16 16-16h101.167969l42.832031 107.089844 42.832032-107.089844h101.167968c8.824219 0 16 7.175781 16 16v18.742188c-5.007812-1.773438-10.390625-2.742188-16-2.742188zm0 0"/></svg>