<svg height="409.6pt" viewBox="0 0 409.6 409.6" width="409.6pt" xmlns="http://www.w3.org/2000/svg"><path d="m204.800781 409.601562c-112.925781 0-204.800781-91.875-204.800781-204.800781s91.875-204.800781 204.800781-204.800781 204.800781 91.875 204.800781 204.800781-91.875 204.800781-204.800781 204.800781zm0-395.949218c-105.402343 0-191.148437 85.746094-191.148437 191.148437 0 105.398438 85.746094 191.144531 191.148437 191.144531 105.398438 0 191.144531-85.746093 191.144531-191.144531 0-105.402343-85.746093-191.148437-191.144531-191.148437zm0 0"/><path d="m204.800781 389.121094c-101.632812 0-184.320312-82.6875-184.320312-184.320313 0-101.632812 82.6875-184.320312 184.320312-184.320312 101.632813 0 184.320313 82.6875 184.320313 184.320312 0 101.632813-82.6875 184.320313-184.320313 184.320313zm0-354.988282c-94.109375 0-170.667969 76.558594-170.667969 170.667969 0 94.105469 76.558594 170.664063 170.667969 170.664063 94.105469 0 170.664063-76.558594 170.664063-170.664063 0-94.109375-76.558594-170.667969-170.664063-170.667969zm0 0"/><path d="m266.238281 300.375h-157.011719c-2.101562 0-4.085937-.96875-5.378906-2.628906-1.292968-1.652344-1.753906-3.8125-1.246094-5.851563l13.65625-54.613281c.757813-3.042969 3.488282-5.175781 6.621094-5.175781h115.980469l12.136719-54.613281h-114.460938c-2.105468 0-4.089844-.964844-5.382812-2.625-1.292969-1.652344-1.75-3.8125-1.242188-5.855469l13.652344-54.613281c.761719-3.039063 3.492188-5.171876 6.625-5.171876h143.359375c10.40625 0 20.109375 4.652344 26.625 12.773438 6.511719 8.117188 8.957031 18.605469 6.695313 28.765625l-27.304688 122.878906c-3.5 15.742188-17.203125 26.730469-33.324219 26.730469zm-148.269531-13.65625h148.269531c9.675781 0 17.894531-6.589844 19.996094-16.03125l27.304687-122.882812c1.355469-6.097657-.109374-12.394532-4.015624-17.257813-3.910157-4.875-9.734376-7.667969-15.976563-7.667969h-138.03125l-10.238281 40.960938h114.230468c2.070313 0 4.027344.941406 5.324219 2.554687 1.296875 1.617188 1.789063 3.734375 1.339844 5.75l-15.171875 68.269531c-.695312 3.125-3.464844 5.347657-6.664062 5.347657h-116.125zm0 0"/><path d="m170.667969 225.28125h-81.921875c-2.367188 0-4.5625-1.226562-5.804688-3.242188-1.242187-2.011718-1.359375-4.523437-.300781-6.640624l13.652344-27.304688c1.15625-2.316406 3.519531-3.773438 6.105469-3.773438h81.921874c2.367188 0 4.5625 1.226563 5.804688 3.238282 1.242188 2.011718 1.359375 4.527344.300781 6.640625l-13.652343 27.308593c-1.15625 2.3125-3.519532 3.773438-6.105469 3.773438zm-70.875-13.65625h66.65625l6.824219-13.652344h-66.652344zm0 0"/></svg>