<svg height="409.6pt" viewBox="0 0 409.6 409.6" width="409.6pt" xmlns="http://www.w3.org/2000/svg"><path d="m204.800781 409.601562c-112.925781 0-204.800781-91.875-204.800781-204.800781s91.875-204.800781 204.800781-204.800781 204.800781 91.875 204.800781 204.800781-91.875 204.800781-204.800781 204.800781zm0-395.949218c-105.402343 0-191.148437 85.746094-191.148437 191.148437 0 105.398438 85.746094 191.144531 191.148437 191.144531 105.398438 0 191.144531-85.746093 191.144531-191.144531 0-105.402343-85.746093-191.148437-191.144531-191.148437zm0 0"/><path d="m204.800781 389.121094c-101.632812 0-184.320312-82.6875-184.320312-184.320313 0-101.632812 82.6875-184.320312 184.320312-184.320312 101.632813 0 184.320313 82.6875 184.320313 184.320312 0 101.632813-82.6875 184.320313-184.320313 184.320313zm0-354.988282c-94.109375 0-170.667969 76.558594-170.667969 170.667969 0 94.105469 76.558594 170.664063 170.667969 170.664063 94.105469 0 170.664063-76.558594 170.664063-170.664063 0-94.109375-76.558594-170.667969-170.664063-170.667969zm0 0"/><path d="m204.800781 245.761719c-.554687 0-1.113281-.066407-1.65625-.207031l-81.917969-20.480469c-1.992187-.492188-3.652343-1.859375-4.527343-3.722657-.871094-1.851562-.859375-4.003906.027343-5.851562l81.921876-170.667969c1.144531-2.414062 3.644531-3.804687 6.265624-3.875 2.667969.046875 5.0625 1.640625 6.132813 4.082031l75.09375 170.667969c.800781 1.8125.773437 3.890625-.085937 5.683594-.855469 1.796875-2.449219 3.128906-4.367188 3.648437l-75.09375 20.480469c-.585938.160157-1.1875.242188-1.792969.242188zm-72.140625-31.902344 72.066406 18.023437 65.726563-17.929687-65.917969-149.824219zm0 0"/><path d="m204.800781 361.8125c-2.394531 0-4.621093-1.25-5.855469-3.3125l-81.917968-136.53125c-1.941406-3.234375-.894532-7.429688 2.339844-9.367188 3.238281-1.949218 7.425781-.894531 9.363281 2.339844l75.808593 126.347656 69.371094-126.121093c1.8125-3.308594 5.976563-4.5 9.269532-2.691407 3.304687 1.8125 4.511718 5.964844 2.691406 9.265626l-75.09375 136.535156c-1.171875 2.144531-3.40625 3.492187-5.851563 3.539062-.039062-.003906-.085937-.003906-.125-.003906zm0 0"/><path d="m204.800781 361.8125c-3.773437 0-6.828125-3.050781-6.828125-6.824219v-293.546875c0-3.773437 3.054688-6.828125 6.828125-6.828125 3.773438 0 6.824219 3.054688 6.824219 6.828125v293.546875c0 3.773438-3.050781 6.824219-6.824219 6.824219zm0 0"/></svg>